{"title":"Man at Bath (2010) WEB-DL GAY INTREST","uid":12076135,"size":871099714,"categoryP":"video","categoryS":"movies","magnet":"?xt=urn:btih:b185bf55d3cd4cd1791873743f37ad987c166b25&amp;dn=Man+at+Bath+%282010%29+WEB-DL+GAY+INTREST&amp;tr=udp%3A%2F%2Ftracker.openbittorrent.com%3A80&amp;tr=udp%3A%2F%2Fopen.demonii.com%3A1337&amp;tr=udp%3A%2F%2Ftracker.coppersurfer.tk%3A6969&amp;tr=udp%3A%2F%2Fexodus.desync.com%3A6969","seeders":0,"leechers":1,"uploader":"jmanwf","files":1,"time":1435653383,"description":"Notorious gay adult star Francois Sagat stars as Emmanuel, one half of a cute gay couple who between the suburbs of Paris and the skyscrapers of New York, go to extraordinary lengths to prove that they're not in love with one another. A striking meditation on the male form, appearing as much a celebration of porn actor Francois Sagat's sculpted body as it is a tense examination of love and desire, celebrated director Christophe Honore (Love Songs, Dans Paris, Close to Leo) welcomes you to an exploration of desire and longing; a touching ode to bittersweet goodbyes.\n\nVideo\nID : 2\nFormat : AVC\nFormat/Info : Advanced Video Codec\nFormat profile : Baseline@L3\nFormat settings, CABAC : No\nFormat settings, ReFrames : 1 frame\nCodec ID : avc1\nCodec ID/Info : Advanced Video Coding\nDuration : 1h 12mn\nBit rate : 1 499 Kbps\nWidth : 640 pixels\nHeight : 462 pixels\nDisplay aspect ratio : 1.85:1\nFrame rate mode : Constant\nFrame rate : 25.000 fps\nColor space : YUV\nChroma subsampling : 4:2:0\nBit depth : 8 bits\nScan type : Progressive\nBits/(Pixel*Frame) : 0.203\nStream size : 777 MiB (94%)\nLanguage : French\nEncoded date : UTC 2015-06-29 04:33:26\nTagged date : UTC 2015-06-29 04:37:28\nColor range : Limited\nColor primaries : BT.601 NTSC\nTransfer characteristics : BT.709\nMatrix coefficients : BT.601\n\nAudio\nID : 1\nFormat : AAC\nFormat/Info : Advanced Audio Codec\nFormat profile : LC\nCodec ID : 40\nDuration : 1h 12mn\nBit rate mode : Variable\nBit rate : 101 Kbps\nMaximum bit rate : 135 Kbps\nChannel(s) : 2 channels\nChannel positions : Front: L R\nSampling rate : 44.1 KHz\nCompression mode : Lossy\nStream size : 52.5 MiB (6%)\nLanguage : French\nEncoded date : UTC 2015-06-29 04:33:26\nTagged date : UTC 2015-06-29 04:37:28\n\n\n\n &lt;a href=&quot;\nhttps://itunes.apple.com/gb/movie/man-at-bath/id458007543&quot; rel=&quot;nofollow&quot; target=&quot;_NEW&quot;&gt;\nhttps://itunes.apple.com/gb/movie/man-at-bath/id458007543&lt;/a&gt;","torrent":{"xt":"urn:btih:b185bf55d3cd4cd1791873743f37ad987c166b25","amp;dn":"Man+at+Bath+%282010%29+WEB-DL+GAY+INTREST","amp;tr":["udp%3A%2F%2Ftracker.openbittorrent.com%3A80","udp%3A%2F%2Fopen.demonii.com%3A1337","udp%3A%2F%2Ftracker.coppersurfer.tk%3A6969","udp%3A%2F%2Fexodus.desync.com%3A6969"],"infoHash":"b185bf55d3cd4cd1791873743f37ad987c166b25","infoHashBuffer":{"type":"Buffer","data":[177,133,191,85,211,205,76,209,121,24,115,116,63,55,173,152,124,22,107,37]},"announce":[],"urlList":[]}}